<svg width="21" height="21" viewBox="0 0 21 21" fill="none" xmlns="http://www.w3.org/2000/svg">
<circle cx="10.5" cy="10.5" r="10.5" fill="#007AFF"/>
<path d="M12.4499 12.2105C11.733 12.2105 11.1499 11.644 11.1499 10.9474C11.1499 10.2507 11.733 9.6842 12.4499 9.6842C13.1669 9.6842 13.7499 10.2507 13.7499 10.9474C13.7499 11.644 13.1669 12.2105 12.4499 12.2105ZM12.4499 10.3158C12.0911 10.3158 11.7999 10.5987 11.7999 10.9474C11.7999 11.296 12.0911 11.5789 12.4499 11.5789C12.8087 11.5789 13.0999 11.296 13.0999 10.9474C13.0999 10.5987 12.8087 10.3158 12.4499 10.3158Z" fill="white"/>
<path d="M8.55 12.2105C7.83305 12.2105 7.25 11.644 7.25 10.9474C7.25 10.2507 7.83305 9.6842 8.55 9.6842C9.26695 9.6842 9.85 10.2507 9.85 10.9474C9.85 11.644 9.26695 12.2105 8.55 12.2105ZM8.55 10.3158C8.1912 10.3158 7.9 10.5987 7.9 10.9474C7.9 11.296 8.1912 11.5789 8.55 11.5789C8.9088 11.5789 9.2 11.296 9.2 10.9474C9.2 10.5987 8.9088 10.3158 8.55 10.3158Z" fill="white"/>
<path d="M14.075 16H6.92505C6.0287 16 5.30005 15.292 5.30005 14.4211V9.36844C5.30005 8.49749 6.0287 7.78949 6.92505 7.78949H14.075C14.9714 7.78949 15.7 8.49749 15.7 9.36844V14.4211C15.7 15.292 14.9714 16 14.075 16ZM6.92505 8.42107C6.3875 8.42107 5.95005 8.84612 5.95005 9.36844V14.4211C5.95005 14.9434 6.3875 15.3684 6.92505 15.3684H14.075C14.6126 15.3684 15.05 14.9434 15.05 14.4211V9.36844C15.05 8.84612 14.6126 8.42107 14.075 8.42107H6.92505Z" fill="white"/>
<path d="M10.5 8.42103C10.3206 8.42103 10.175 8.27956 10.175 8.10524V6.2105C10.175 6.03619 10.3206 5.89471 10.5 5.89471C10.6794 5.89471 10.825 6.03619 10.825 6.2105V8.10524C10.825 8.27956 10.6794 8.42103 10.5 8.42103Z" fill="white"/>
<path d="M12.125 14.1053H8.87505C8.69565 14.1053 8.55005 13.9638 8.55005 13.7895C8.55005 13.6152 8.69565 13.4737 8.87505 13.4737H12.125C12.3044 13.4737 12.45 13.6152 12.45 13.7895C12.45 13.9638 12.3044 14.1053 12.125 14.1053Z" fill="white"/>
<path d="M10.5 6.52632C9.783 6.52632 9.19995 5.95979 9.19995 5.26316C9.19995 4.56653 9.783 4 10.5 4C11.2169 4 11.7999 4.56653 11.7999 5.26316C11.7999 5.95979 11.2169 6.52632 10.5 6.52632ZM10.5 4.63158C10.1412 4.63158 9.84995 4.91453 9.84995 5.26316C9.84995 5.61179 10.1412 5.89474 10.5 5.89474C10.8588 5.89474 11.1499 5.61179 11.1499 5.26316C11.1499 4.91453 10.8588 4.63158 10.5 4.63158Z" fill="white"/>
<path d="M5.625 12.2105H4.325C4.1456 12.2105 4 12.069 4 11.8947C4 11.7204 4.1456 11.5789 4.325 11.5789H5.625C5.8044 11.5789 5.95 11.7204 5.95 11.8947C5.95 12.069 5.8044 12.2105 5.625 12.2105Z" fill="white"/>
<path d="M16.675 12.2105H15.375C15.1956 12.2105 15.05 12.069 15.05 11.8947C15.05 11.7204 15.1956 11.5789 15.375 11.5789H16.675C16.8544 11.5789 17 11.7204 17 11.8947C17 12.069 16.8544 12.2105 16.675 12.2105Z" fill="white"/>
<path d="M4.325 13.4737C4.1456 13.4737 4 13.3322 4 13.1579V10.6316C4 10.4573 4.1456 10.3158 4.325 10.3158C4.5044 10.3158 4.65 10.4573 4.65 10.6316V13.1579C4.65 13.3322 4.5044 13.4737 4.325 13.4737Z" fill="white"/>
<path d="M16.6751 13.4737C16.4957 13.4737 16.3501 13.3322 16.3501 13.1579V10.6316C16.3501 10.4573 16.4957 10.3158 16.6751 10.3158C16.8545 10.3158 17.0001 10.4573 17.0001 10.6316V13.1579C17.0001 13.3322 16.8545 13.4737 16.6751 13.4737Z" fill="white"/>
</svg>
