<svg width="22" height="22" viewBox="0 0 22 22" fill="none" xmlns="http://www.w3.org/2000/svg">
<g clip-path="url(#clip0_2321_168)">
<path d="M20.6689 1.31609C20.4227 1.05932 20.1063 0.880677 19.7593 0.802436C19.4122 0.724195 19.0498 0.749812 18.7172 0.876095L1.93277 7.11702C1.61087 7.23692 1.33256 7.451 1.13409 7.73136C0.935617 8.01172 0.8262 8.34537 0.820094 8.68882C0.813989 9.03226 0.911477 9.36959 1.09986 9.65683C1.28823 9.94407 1.55877 10.1679 1.8762 10.2992L8.04092 12.848L14.373 6.51595C14.5212 6.37283 14.7196 6.29363 14.9257 6.29542C15.1317 6.29721 15.3287 6.37985 15.4744 6.52552C15.6201 6.6712 15.7027 6.86827 15.7045 7.07428C15.7063 7.28029 15.6271 7.47876 15.484 7.62695L9.09142 14.0203L11.0895 19.9006C11.2002 20.232 11.4105 20.5212 11.6918 20.7285C11.9731 20.9358 12.3116 21.0511 12.6609 21.0587H12.712C13.0525 21.0603 13.3856 20.9592 13.6677 20.7686C13.9499 20.5779 14.168 20.3067 14.2936 19.9902L21.0508 3.27802C21.1872 2.9497 21.2237 2.58844 21.1558 2.23946C21.0878 1.89048 20.9185 1.56929 20.6689 1.31609Z" fill="#007AFF"/>
</g>
<defs>
<clipPath id="clip0_2321_168">
<rect width="22" height="22" fill="white"/>
</clipPath>
</defs>
</svg>
